<svg width="500" height="500" viewBox="0 0 500 500" fill="none" xmlns="http://www.w3.org/2000/svg">
<rect width="500" height="500" rx="12.5" fill="black"/>
<rect x="262" y="263" width="200" height="200" rx="12.5" fill="#02FF62"/>
<path d="M37 47C37 42.0294 41.0294 38 46 38L228 38C232.971 38 237 42.0294 237 47V229C237 233.971 232.971 238 228 238H46C41.0294 238 37 233.971 37 229L37 47Z" fill="#FF0000"/>
<path d="M262 47C262 42.0294 266.029 38 271 38L453 38C457.971 38 462 42.0294 462 47V229C462 233.971 457.971 238 453 238H271C266.029 238 262 233.971 262 229V47Z" fill="#555555"/>
<path d="M37 272C37 267.029 41.0294 263 46 263H228C232.971 263 237 267.029 237 272V454C237 458.971 232.971 463 228 463H46C41.0294 463 37 458.971 37 454L37 272Z" fill="#555555"/>
</svg>
